<svg width="174" height="32" viewBox="0 0 174 32" fill="none" xmlns="http://www.w3.org/2000/svg">
<path d="M174 6.91526V22.1017C174 25.4463 173.151 27.9322 171.453 29.5593C169.755 31.1864 167.288 32 164.05 32C162.33 32 160.7 31.7853 159.16 31.3559C157.643 30.9266 156.364 30.3051 155.323 29.4915L157.428 25.6949C158.198 26.3277 159.137 26.8249 160.247 27.1864C161.356 27.548 162.477 27.7288 163.609 27.7288C165.375 27.7288 166.665 27.322 167.48 26.5085C168.295 25.6949 168.702 24.452 168.702 22.7797V22.1695C168.023 22.8475 167.22 23.3672 166.291 23.7288C165.363 24.0904 164.367 24.2712 163.303 24.2712C160.903 24.2712 159.002 23.5932 157.598 22.2373C156.194 20.8588 155.493 18.8023 155.493 16.0678V6.91526H160.79V15.2881C160.79 18.2486 162.024 19.7288 164.492 19.7288C165.759 19.7288 166.778 19.322 167.548 18.5085C168.318 17.6723 168.702 16.4407 168.702 14.8136V6.91526H174Z" fill="black"/>
<path d="M141.356 25.4237C139.431 25.4237 137.7 25.0282 136.16 24.2373C134.643 23.4237 133.455 22.3051 132.594 20.8814C131.734 19.4576 131.304 17.8418 131.304 16.0339C131.304 14.226 131.734 12.6102 132.594 11.1864C133.455 9.76271 134.643 8.65536 136.16 7.8644C137.7 7.05085 139.431 6.64407 141.356 6.64407C143.28 6.64407 145.001 7.05085 146.517 7.8644C148.034 8.65536 149.223 9.76271 150.083 11.1864C150.943 12.6102 151.374 14.226 151.374 16.0339C151.374 17.8418 150.943 19.4576 150.083 20.8814C149.223 22.3051 148.034 23.4237 146.517 24.2373C145.001 25.0282 143.28 25.4237 141.356 25.4237ZM141.356 21.0847C142.714 21.0847 143.823 20.6328 144.684 19.7288C145.567 18.8023 146.008 17.5706 146.008 16.0339C146.008 14.4972 145.567 13.2768 144.684 12.3729C143.823 11.4463 142.714 10.983 141.356 10.983C139.997 10.983 138.877 11.4463 137.994 12.3729C137.111 13.2768 136.67 14.4972 136.67 16.0339C136.67 17.5706 137.111 18.8023 137.994 19.7288C138.877 20.6328 139.997 21.0847 141.356 21.0847Z" fill="black"/>
<path d="M127.025 6.91526V25.1525H121.727V11.2542H115.954L115.784 14.4746C115.694 16.8701 115.468 18.8588 115.105 20.4407C114.743 22.0226 114.154 23.2655 113.339 24.1695C112.524 25.0734 111.392 25.5254 109.944 25.5254C109.174 25.5254 108.257 25.3898 107.193 25.1186L107.465 20.7797C107.827 20.8249 108.087 20.8475 108.246 20.8475C109.038 20.8475 109.627 20.565 110.012 20C110.419 19.4124 110.691 18.678 110.827 17.7966C110.962 16.8927 111.064 15.7062 111.132 14.2373L111.404 6.91526H127.025Z" fill="black"/>
<path d="M105.501 15.9661C105.501 18.791 104.55 21.0282 102.649 22.678C100.77 24.3051 98.0756 25.2429 94.5665 25.4915V31.7288H89.7105V25.4915C86.2014 25.2429 83.496 24.3164 81.5944 22.7119C79.7153 21.0847 78.7758 18.8362 78.7758 15.9661C78.7758 13.1412 79.704 10.9491 81.5604 9.38983C83.4394 7.83051 86.1561 6.92655 89.7105 6.67797V0H94.5665V6.67797C98.0756 6.92655 100.77 7.84181 102.649 9.42373C104.55 11.0056 105.501 13.1864 105.501 15.9661ZM83.9035 15.9661C83.9035 17.5932 84.3676 18.8475 85.2958 19.7288C86.224 20.6102 87.6956 21.1638 89.7105 21.3898V10.7797C87.6956 10.983 86.224 11.5141 85.2958 12.3729C84.3676 13.209 83.9035 14.4068 83.9035 15.9661ZM94.5665 21.3898C96.5814 21.1638 98.0529 20.6102 98.9811 19.7288C99.932 18.8475 100.407 17.5932 100.407 15.9661C100.407 14.4068 99.932 13.209 98.9811 12.3729C98.0529 11.5141 96.5814 10.983 94.5665 10.7797V21.3898Z" fill="black"/>
<path d="M67.5034 6.64407C69.79 6.64407 71.6011 7.32203 72.9368 8.67796C74.2951 10.0113 74.9743 12.0226 74.9743 14.7119V25.1525H69.6768V15.5254C69.6768 14.0791 69.3712 13.0056 68.7599 12.3051C68.1713 11.5819 67.3223 11.2203 66.213 11.2203C64.9679 11.2203 63.9831 11.6271 63.2586 12.4407C62.5342 13.2316 62.1719 14.4181 62.1719 16V25.1525H56.8744V15.5254C56.8744 12.6554 55.7198 11.2203 53.4106 11.2203C52.1881 11.2203 51.2147 11.6271 50.4902 12.4407C49.7658 13.2316 49.4035 14.4181 49.4035 16V25.1525H44.106V6.91525H49.1658V9.01695C49.845 8.24858 50.6713 7.66101 51.6448 7.25424C52.6409 6.84746 53.7276 6.64407 54.9048 6.64407C56.1952 6.64407 57.3612 6.90395 58.4026 7.42373C59.4439 7.9209 60.2816 8.65536 60.9155 9.62712C61.6626 8.67796 62.6021 7.9435 63.734 7.42373C64.8886 6.90395 66.1451 6.64407 67.5034 6.64407Z" fill="black"/>
<path d="M31.1386 21.1864C32.0895 21.1864 32.9271 21.0508 33.6516 20.7797C34.3986 20.4859 35.0892 20.0339 35.723 19.4237L38.5416 22.4746C36.821 24.4407 34.3081 25.4237 31.0028 25.4237C28.9426 25.4237 27.1202 25.0282 25.5355 24.2373C23.9508 23.4237 22.7282 22.3051 21.868 20.8814C21.0077 19.4576 20.5775 17.8418 20.5775 16.0339C20.5775 14.2486 20.9964 12.6441 21.834 11.2203C22.6943 9.77401 23.8602 8.65536 25.3317 7.8644C26.8259 7.05085 28.5012 6.64407 30.3576 6.64407C32.1008 6.64407 33.6855 7.01695 35.1118 7.76271C36.538 8.48587 37.67 9.54802 38.5076 10.9491C39.3679 12.3277 39.7981 13.9661 39.7981 15.8644L26.2826 18.4746C26.6674 19.3785 27.2674 20.0565 28.0824 20.5085C28.92 20.9604 29.9388 21.1864 31.1386 21.1864ZM30.3576 10.6441C29.0219 10.6441 27.9352 11.0734 27.0976 11.9322C26.2599 12.791 25.8185 13.9774 25.7732 15.4915L34.6703 13.7627C34.4213 12.8136 33.9119 12.0565 33.1422 11.4915C32.3725 10.9265 31.4443 10.6441 30.3576 10.6441Z" fill="black"/>
<path d="M10.1876 25.4237C8.2406 25.4237 6.48608 25.0282 4.92399 24.2373C3.38453 23.4237 2.17335 22.3051 1.29043 20.8814C0.430145 19.4576 0 17.8418 0 16.0339C0 14.226 0.430145 12.6102 1.29043 11.1864C2.17335 9.76271 3.38453 8.65536 4.92399 7.8644C6.48608 7.05085 8.2406 6.64407 10.1876 6.64407C12.1119 6.64407 13.7872 7.05085 15.2134 7.8644C16.6623 8.65536 17.715 9.79661 18.3716 11.2881L14.2626 13.4915C13.3117 11.8192 11.9421 10.983 10.1536 10.983C8.77262 10.983 7.62935 11.435 6.72379 12.339C5.81823 13.2429 5.36545 14.4746 5.36545 16.0339C5.36545 17.5932 5.81823 18.8249 6.72379 19.7288C7.62935 20.6328 8.77262 21.0847 10.1536 21.0847C11.9647 21.0847 13.3344 20.2486 14.2626 18.5763L18.3716 20.8136C17.715 22.2599 16.6623 23.3898 15.2134 24.2034C13.7872 25.0169 12.1119 25.4237 10.1876 25.4237Z" fill="black"/>
</svg>
